<svg xmlns="http://www.w3.org/2000/svg" version="1.1" xmlns:xlink="http://www.w3.org/1999/xlink" xmlns:svgjs="http://svgjs.com/svgjs" width="100%" height="100%"><svg width="100%" height="100%" viewBox="0 0 600 600" version="1.1" xmlns="http://www.w3.org/2000/svg" xmlns:xlink="http://www.w3.org/1999/xlink" xml:space="preserve" xmlns:serif="http://www.serif.com/" style="fill-rule:evenodd;clip-rule:evenodd;stroke-linejoin:round;stroke-miterlimit:2;">
    <g id="SvgjsG1000" serif:id="Layer 1" transform="matrix(1,0,0,1,64.348,-10)">
        <g transform="matrix(1,0,0,1,417.667,183.946)">
            <path d="M0,-167.149C-6.209,-170.231 -28.667,-116.816 -28.667,-116.816C-28.667,-116.816 -19.692,-116.036 -4.51,-114.556C-10.573,-112.972 -19.77,-114.393 -24.667,-110.482C-28.894,-107.107 -33.16,-100.801 -35.921,-96.149C-47.369,-76.866 -54.466,-56.03 -65.914,-36.746C-51.551,-32.253 -35.569,-39.741 -25.884,-51.259C-16.198,-62.777 -11.544,-77.606 -7.534,-92.11C-4.998,-77.493 -8.566,-61.914 -17.209,-49.857C-25.852,-37.799 -39.461,-29.418 -54.118,-27.126C-59.408,-26.298 -64.893,-26.21 -69.88,-24.261C-80.544,-20.095 -86.247,-8.738 -90.993,1.68C-73.267,2.405 -55.135,3.082 -38.179,-2.14C-21.224,-7.362 -5.375,-19.707 -0.933,-36.884C-1.206,-28.201 -4.285,-19.629 -9.6,-12.758C-3.888,-5.707 8.303,-5.429 14.332,-12.21C19.392,-17.903 19.658,-26.358 18.731,-33.918C16.289,-53.818 7.569,-72.577 5.519,-92.52C3.117,-115.887 1.667,-162.327 1.667,-162.327" style="fill:rgb(140,198,63);fill-rule:nonzero;"></path>
        </g>
        <g transform="matrix(1,0,0,1,439.456,454.94)">
            <path d="M0,-283.662C-6.355,-274.256 -19.025,-272.047 -30.291,-270.659C-58.392,-267.195 -86.494,-263.732 -114.595,-260.269C-122.845,-249.626 -131.094,-238.982 -139.344,-228.339C-122.278,-236.842 -103.558,-242.01 -84.547,-243.467C-64.833,-244.978 -42.531,-243.398 -28.141,-256.958C-38.844,-244.448 -56.163,-240.036 -72.504,-238.03C-88.845,-236.024 -105.85,-235.616 -120.722,-228.553C-142.493,-218.214 -155.456,-195.812 -167.086,-174.702C-123.456,-159.31 -45.456,-197.81 -27.727,-243.046C-28.703,-235.839 -25.912,-230.134 -31.462,-225.432C-20.266,-226.714 -15.456,-238.31 0.044,-233.81C-18.85,-228.587 -38.812,-214.784 -53.302,-201.582C-78.931,-178.232 -112.74,-164.043 -147.356,-162.109C-157.104,-161.564 -167.331,-161.856 -176.017,-157.401C-183.439,-153.595 -188.789,-146.775 -193.671,-140.013C-209.978,-117.421 -223.838,-93.063 -234.928,-67.503C-190.662,-72.474 -148.247,-89.23 -110.106,-112.24C-71.965,-135.251 -37.869,-164.42 -5.976,-195.517C-25.28,-169.913 -47.696,-146.657 -72.573,-126.423C-49.032,-121.343 -23.438,-126.678 -3.887,-140.74C-16.174,-125.791 -36.711,-120.956 -55.823,-117.926C-74.935,-114.896 -95.337,-112.286 -110.213,-99.911C-91.195,-95.278 -71.608,-92.982 -52.033,-93.093C-63.15,-86.743 -76.687,-86.421 -89.428,-87.677C-102.168,-88.933 -114.893,-91.599 -127.657,-90.609C-155.124,-88.479 -178.563,-69.953 -205.318,-63.384C-216.613,-60.61 -228.807,-59.848 -238.565,-53.519C-256.18,-42.096 -259.735,-16.794 -276.169,-3.728C-255.876,-1.863 -235.407,0 -215.166,-2.358C-194.924,-4.715 -174.661,-11.641 -159.593,-25.362L-168.57,-11.832C-114.14,-26.072 -56.19,-51.963 -22.273,-92.492C-20.355,-83.956 -34.246,-68.923 -40.956,-63.31C-29.369,-60.715 -6.846,-74.379 -1.226,-84.84C4.393,-95.3 5.224,-107.58 5.939,-119.433C9.204,-173.551 12.368,-228.759 -1.47,-281.179" style="fill:rgb(140,198,63);fill-rule:nonzero;"></path>
        </g>
        <g transform="matrix(1,0,0,1,442.664,578.33)">
            <path d="M0,-204.035C-6.575,-194.184 -13.884,-183.739 -25.019,-179.703C-33.022,-176.803 -41.821,-177.685 -50.308,-177.031C-58.795,-176.377 -68.101,-173.418 -72.047,-165.876C-55.419,-156.972 -34.082,-157.609 -18.015,-167.49C-30.508,-153.51 -52.031,-153.467 -70.712,-155.055C-89.393,-156.643 -110.453,-158.062 -124.515,-145.662C-128.22,-142.395 -131.34,-137.187 -129.264,-132.704C-127.877,-129.71 -124.629,-128.107 -121.569,-126.871C-99.476,-117.951 -74.483,-116.389 -51.45,-122.489C-70.913,-109.245 -97.252,-106.794 -118.825,-116.218C-128.258,-120.34 -136.919,-126.587 -147.018,-128.585C-154.203,-130.006 -161.62,-129.165 -168.896,-128.318C-196.48,-125.11 -224.064,-121.902 -251.648,-118.694C-262.995,-117.374 -274.754,-115.916 -284.476,-109.918C-293.367,-104.434 -294.505,-95.063 -300.562,-86.551C-258.552,-81.306 -220.265,-70.626 -179.164,-75.7C-167.507,-77.139 -155.361,-78.798 -144.16,-82.332C-132.96,-85.866 -122.443,-93.349 -118.005,-104.223C-121.525,-97.86 -125.044,-91.497 -128.564,-85.134C-106.745,-79.066 -82.497,-82.317 -63.046,-93.916C-84.736,-77.054 -112.741,-68.52 -140.149,-70.423C-132.508,-61.77 -122.314,-55.401 -111.187,-52.328C-117.971,-50.197 -125.392,-52.333 -131.721,-55.573C-138.051,-58.814 -143.814,-63.154 -150.386,-65.868C-166.262,-72.426 -184.297,-68.675 -201.04,-64.835C-190.18,-47.404 -168.602,-37.32 -148.264,-40.17C-164.164,-34.858 -182.788,-38.738 -195.245,-49.957C-201.121,-55.249 -205.897,-62.153 -213.16,-65.281C-223.666,-69.806 -235.677,-65.043 -247.113,-65.314C-259.04,-65.596 -270.041,-71.367 -281.466,-74.805C-292.89,-78.243 -306.744,-78.803 -315.257,-70.445C-300.274,-48.065 -284.31,-24.784 -260.447,-12.296C-238.877,-1.009 -213.269,0 -189.151,-3.313C-140.365,-10.015 -94.107,-33.861 -60.348,-69.712C-26.589,-105.562 -5.563,-153.168 -1.803,-202.268" style="fill:rgb(140,198,63);fill-rule:nonzero;"></path>
        </g>
        <g transform="matrix(1,0,0,1,53.8708,260.037)">
            <path d="M0,307.452C76.522,231.985 130.411,137.12 183.744,43.811C198.868,17.35 214.601,-9.769 238.532,-28.642C210.489,6.481 188.085,46.371 166.129,85.844C116.485,175.094 67.629,262.594 -3.121,336.094C0.392,329.18 -0.01,316.377 0.38,308.632" style="fill:rgb(140,198,63);fill-rule:nonzero;"></path>
        </g>
        <g transform="matrix(1,0,0,1,407.995,293.931)">
            <path d="M0,-275.163C-2.628,-283.548 -33.762,-253.27 -52.476,-241.134C-68.543,-230.715 -88.195,-227.975 -106.872,-223.742C-138.989,-216.464 -169.849,-204.106 -198.813,-188.435C-208.547,-183.169 -218.66,-176.896 -223.15,-166.781C-227.64,-156.666 -223.152,-142.02 -212.247,-140.132C-205.796,-151.38 -197.898,-161.797 -188.809,-171.045C-198.284,-162.623 -203.535,-150.251 -205.61,-137.745C-207.684,-125.239 -206.862,-112.453 -205.915,-99.811C-203.137,-62.7 -199.036,-24.616 -181.835,8.385C-173.783,4.612 -169.392,-4.47 -168.364,-13.302C-167.335,-22.134 -169.026,-31.022 -169.858,-39.875C-171.481,-57.145 -169.8,-74.72 -164.933,-91.369C-161.538,-102.981 -159.728,-113.706 -159.995,-125.8C-160.294,-139.385 -163.99,-152.61 -170.673,-164.44C-167.839,-156.815 -161.69,-150.49 -154.149,-147.44C-152.258,-167.711 -141.613,-187.014 -125.48,-199.431C-139.753,-182.423 -145.291,-159.957 -150.409,-138.352C-158.578,-103.864 -166.69,-67.274 -155.736,-33.566C-149.658,-40.228 -143.579,-46.89 -137.501,-53.552C-131.418,-60.22 -123.573,-66.389 -121.299,-75.124C-114.611,-100.813 -115.111,-118.128 -112.438,-140.8C-110.333,-158.652 -99.495,-174.3 -92.749,-191.121C-90.561,-191.895 -88.372,-192.669 -86.184,-193.444C-100.771,-169.11 -108.439,-124.487 -102.247,-96.8C-72.723,-133.982 -33.282,-197.394 -30.495,-245.3C-26.249,-250.8 -30.265,-220.866 -26.249,-217.8" style="fill:rgb(140,198,63);fill-rule:nonzero;"></path>
        </g>
        <g transform="matrix(1,0,0,1,197.033,406.84)">
            <path d="M0,-197.056C-1.391,-214.331 1.207,-233.573 -9.821,-246.943C-13.598,-251.522 -18.585,-255.059 -21.944,-259.953C-25.304,-264.848 -26.579,-272.046 -22.571,-276.426C-24.532,-280.344 -30.434,-278.81 -34.237,-276.634C-113.287,-231.393 -166.647,-144.216 -170.973,-53.238C-171.679,-38.386 -171.175,-23.413 -173.603,-8.744C-176.607,9.41 -183.741,29.388 -174.126,45.076C-167.278,56.25 -153.959,61.336 -141.594,65.677C-131.062,69.375 -120.531,73.072 -109.999,76.77C-101.652,79.7 -86.702,83.288 -79.771,77.791C-71.861,71.517 -78.472,58.361 -80.972,48.579C-84.586,34.439 -88.199,20.298 -91.813,6.158C-94.016,-2.46 -96.353,-11.358 -101.866,-18.338C-108.478,-26.709 -118.702,-31.172 -128.091,-36.234C-137.481,-41.297 -147.033,-48.066 -150.113,-58.279C-142.436,-49.853 -132.961,-43.074 -122.509,-38.527C-118.862,-36.94 -113.942,-35.907 -111.46,-39.014C-109.204,-41.836 -110.684,-45.959 -112.142,-49.265C-122.876,-73.618 -127.906,-100.464 -126.718,-127.051C-128.232,-90.523 -105.721,-58.051 -91.729,-24.276C-81.614,0.139 -75.397,31.502 -69.626,57.291C-55.038,52.604 -46.234,32.113 -43.67,17.006C-41.107,1.899 -43.883,-13.529 -46.021,-28.702C-51.617,-68.405 -52.842,-108.723 -49.668,-148.693C-47.683,-114.721 -45.698,-80.749 -43.713,-46.778C-42.754,-30.364 -39.902,-10.859 -30.033,2.291C-20.616,-16.683 -10.026,-36.352 4.307,-51.948C10.292,-58.461 14.175,-67.218 17.967,-75.209C21.76,-83.2 17.467,-103.209 13.467,-113.709" style="fill:rgb(140,198,63);fill-rule:nonzero;"></path>
        </g>
    </g>
</svg><style>@media (prefers-color-scheme: light) { :root { filter: none; } }
</style></svg>